<?xml version="1.0" encoding="utf-8"?>
<!-- Generator: Adobe Illustrator 18.1.1, SVG Export Plug-In . SVG Version: 6.00 Build 0)  -->
<!DOCTYPE svg PUBLIC "-//W3C//DTD SVG 1.1//EN" "http://www.w3.org/Graphics/SVG/1.1/DTD/svg11.dtd">
<svg version="1.1" id="Layer_1" xmlns="http://www.w3.org/2000/svg" xmlns:xlink="http://www.w3.org/1999/xlink" x="0px" y="0px"
	 viewBox="1140 640 320 320" enable-background="new 1140 640 320 320" xml:space="preserve">
<path d="M1445,854h-8V666h8c3,0,5-2,5-5s-2-5-5-5h-13h-264h-13c-3,0-5,2-5,5s2,5,5,5h8v187.5h-8c-3,0-5,2-5,5s2,5,5,5h13h127V889
	l-93,45c-2.5,1-3.5,4-2.5,6.5c1,2,2.5,3,4.5,3c0.5,0,1.5,0,2-0.5l89-42.5v23c0,3,2,5,5,5s5-2,5-5v-23l88.5,43c0.5,0.5,1.5,0.5,2,0.5
	c2,0,3.5-1,4.5-3c1-2.5,0-5.5-2.5-6.5l-93-45V864h127h13.5c3,0,5-2,5-5S1448,854,1445,854z M1427,854h-254V666h254V854z"/>
<text transform="matrix(1 0 0 1 500 1840)" font-family="'HelveticaNeue-Bold'" font-size="80">Created by Mello</text>
<text transform="matrix(1 0 0 1 500 1920)" font-family="'HelveticaNeue-Bold'" font-size="80">from the Noun Project</text>
</svg>
