<?xml version="1.0" encoding="utf-8"?>
<!-- Generator: Adobe Illustrator 18.1.1, SVG Export Plug-In . SVG Version: 6.00 Build 0)  -->
<!DOCTYPE svg PUBLIC "-//W3C//DTD SVG 1.1//EN" "http://www.w3.org/Graphics/SVG/1.1/DTD/svg11.dtd">
<svg version="1.1" id="Layer_1" xmlns="http://www.w3.org/2000/svg" xmlns:xlink="http://www.w3.org/1999/xlink" x="0px" y="0px"
	 viewBox="1155 640 320 320" enable-background="new 1155 640 320 320" xml:space="preserve">
<title>40 all</title>
<g>
	<path d="M1460.4,786.2c-2.5,0-4.6,2.1-4.6,4.6v115.4c0,17.8-14.5,32.3-32.3,32.3h-161.5c-17.8,0-32.3-14.5-32.3-32.3v-9.2h138.5
		c22.9,0,41.5-18.6,41.5-41.5V740c0-2.5-2.1-4.6-4.6-4.6s-4.6,2.1-4.6,4.6v115.4c0,17.8-14.5,32.3-32.3,32.3h-161.5
		c-17.8,0-32.3-14.5-32.3-32.3V693.8c0-17.8,14.5-32.3,32.3-32.3h115.4c2.5,0,4.6-2.1,4.6-4.6s-2.1-4.6-4.6-4.6h-115.4
		c-22.9,0-41.5,18.6-41.5,41.5v161.5c0,22.9,18.6,41.5,41.5,41.5h13.8v9.2c0,22.9,18.6,41.5,41.5,41.5h161.5
		c22.9,0,41.5-18.6,41.5-41.5V790.8C1465,788.2,1462.9,786.2,1460.4,786.2z"/>
	<path d="M1225.5,736.6c-1.9-1.7-4.8-1.6-6.5,0.3c-1.7,1.9-1.6,4.8,0.3,6.5l0,0l55.1,50.8c0.9,0.8,2,1.2,3.1,1.2l0,0
		c1.2-0.1,2.4-0.6,3.2-1.5l119-130.8c1.8-1.8,1.8-4.7,0.1-6.5c-1.8-1.8-4.7-1.8-6.5-0.1c-0.1,0.1-0.3,0.3-0.4,0.4l-115.7,127.3
		L1225.5,736.6z"/>
</g>
<text transform="matrix(1 0 0 1 515.0014 1840)" font-family="'HelveticaNeue-Bold'" font-size="80">Created by Nirbhay</text>
<text transform="matrix(1 0 0 1 515.0014 1920)" font-family="'HelveticaNeue-Bold'" font-size="80">from the Noun Project</text>
</svg>
