<?xml version="1.0" encoding="utf-8"?>
<!-- Generator: Adobe Illustrator 18.1.1, SVG Export Plug-In . SVG Version: 6.00 Build 0)  -->
<!DOCTYPE svg PUBLIC "-//W3C//DTD SVG 1.1//EN" "http://www.w3.org/Graphics/SVG/1.1/DTD/svg11.dtd">
<svg version="1.1" id="Layer_1" xmlns="http://www.w3.org/2000/svg" xmlns:xlink="http://www.w3.org/1999/xlink" x="0px" y="0px"
	 viewBox="1082.6 555.7 320 320" enable-background="new 1082.6 555.7 320 320" xml:space="preserve">
<title>0-</title>
<g>
	<path d="M1141.2,814.8l5.6-1.5c0.4,0.2,0.9,0.3,1.3,0.3l228.8-1.2c8.7-0.1,15.7-7.2,15.7-15.9l-0.6-108.3c0-8.7-7.1-15.7-15.8-15.7
		c0,0,0,0,0,0l-6.6,0.1l-12.4-45.3l0,0c-2.5-8.3-11-13.1-19.3-10.9l-45.2,12.2l0,0l-188.4,51.4c-1.3,0.4-2.6,0.9-3.8,1.6
		c-6.2,3.6-9.1,10.9-7.2,17.8l28.6,104.4C1124.1,812.2,1132.8,817.1,1141.2,814.8z M1386,796.6c0,5.2-4.2,9.4-9.3,9.4l-207.2,1.1
		l205.1-56c5.7-1.5,10-6.1,11.2-11.9L1386,796.6z M1376.1,679c5.2,0,9.4,4.1,9.4,9.3l0.2,44c-0.1-0.1-0.2-0.3-0.1-0.5l-14.5-52.7
		L1376.1,679z M1128,802.1l-28.6-104.4c-1.4-5,1.6-10.1,6.6-11.5c0,0,0,0,0,0l185.2-50.5l3.5,12.3c0.4,1.7,2.1,2.8,3.8,2.4
		c1.7-0.4,2.8-2.1,2.4-3.8c0-0.1,0-0.1-0.1-0.2l-3.5-12.3l42-11.5c5-1.4,10.2,1.6,11.5,6.6l0,0l28.6,104.4c1.4,5-1.6,10.1-6.6,11.5
		c0,0,0,0,0,0l-42,11.5l-3.5-12.3c-0.5-1.7-2.2-2.7-3.9-2.2c-0.3,0.1-0.5,0.2-0.7,0.4c-1.3,0.7-2,2.2-1.6,3.7l3.5,12.3l-185.2,50.5
		C1134.5,810.2,1129.3,807.1,1128,802.1z"/>
	<path d="M1316.3,715.4c1.7-0.5,2.7-2.2,2.2-3.9l-8.9-32.6c-0.5-1.7-2.2-2.7-3.9-2.2c-0.3,0.1-0.5,0.2-0.7,0.4
		c-1.3,0.7-2,2.2-1.6,3.7l8.9,32.6C1312.9,715,1314.7,715.9,1316.3,715.4z"/>
	<path d="M1161.8,777.6c1.5,0.9,3.5,0.4,4.4-1.2c0,0,0,0,0,0l8.8-15.4l15.3,8.8c1.5,0.9,3.5,0.4,4.4-1.2c0,0,0,0,0,0l8.9-15.4
		l15.4,8.8c1.5,0.9,3.5,0.4,4.4-1.2c0,0,0,0,0,0l8.8-15.4l15.5,8.8c1.5,0.9,3.5,0.4,4.4-1.2c0,0,0,0,0,0l10.3-18.1
		c0.8-1.6,0.2-3.5-1.4-4.3c-1.5-0.8-3.3-0.3-4.2,1.1L1248,747l-15.5-8.8c-1.5-0.9-3.5-0.4-4.4,1.2c0,0,0,0,0,0l-8.8,15.4l-15.5-8.8
		c-1.5-0.9-3.5-0.4-4.4,1.2c0,0,0,0,0,0l-8.8,15.4l-15.5-8.8c-1.5-0.9-3.5-0.4-4.4,1.2c0,0,0,0,0,0l-8.8,15.4l-15.5-8.8
		c-1.6-0.8-3.5-0.2-4.3,1.4c-0.8,1.5-0.3,3.3,1.1,4.2L1161.8,777.6z"/>
	<path d="M1138.1,738.9l85.9-23.5c1.7-0.4,2.8-2.1,2.4-3.8c-0.4-1.7-2.1-2.8-3.8-2.4c-0.1,0-0.1,0-0.2,0.1l-85.9,23.4
		c-1.7,0.5-2.8,2.3-2.3,4C1134.6,738.3,1136.4,739.4,1138.1,738.9z"/>
	<path d="M1134.2,724.5l85.9-23.4c1.7-0.5,2.6-2.3,2.1-4c-0.5-1.6-2.2-2.6-3.8-2.2l-85.9,23.5c-1.7,0.6-2.5,2.5-1.9,4.1
		C1131.2,724,1132.7,724.9,1134.2,724.5z"/>
	<path d="M1130.3,710.3l85.9-23.4c1.7-0.4,2.8-2.1,2.4-3.8c-0.4-1.7-2.1-2.8-3.8-2.4c-0.1,0-0.1,0-0.2,0.1l-85.9,23.4
		c-1.7,0.5-2.6,2.3-2.1,4C1127,709.7,1128.6,710.7,1130.3,710.3z"/>
</g>
</svg>
